<svg xmlns="http://www.w3.org/2000/svg" viewBox="0 0 190 147">
  <path fill="#000" fill-rule="evenodd" d="M 127 32 L 134 32 L 134 31 L 137 31 L 137 30 L 139 30 L 139 29 L 140 29 L 140 27 L 141 27 L 141 25 L 142 25 L 142 22 L 143 22 L 143 14 L 144 14 L 144 21 L 145 21 L 145 25 L 146 25 L 146 27 L 147 27 L 147 29 L 148 29 L 148 30 L 150 30 L 150 31 L 153 31 L 153 32 L 159 32 L 159 33 L 156 33 L 156 34 L 151 34 L 151 35 L 149 35 L 149 36 L 148 36 L 148 37 L 147 37 L 147 38 L 146 38 L 146 40 L 145 40 L 145 42 L 144 42 L 144 45 L 143 45 L 143 42 L 142 42 L 142 39 L 141 39 L 141 38 L 140 38 L 140 37 L 139 37 L 139 36 L 138 36 L 138 35 L 136 35 L 136 34 L 131 34 L 131 33 L 127 33 Z M 153 19 L 156 19 L 156 18 L 158 18 L 158 17 L 159 17 L 159 13 L 160 13 L 160 16 L 161 16 L 161 18 L 163 18 L 163 19 L 166 19 L 166 20 L 163 20 L 163 21 L 161 21 L 161 23 L 160 23 L 160 26 L 159 26 L 159 23 L 158 23 L 158 21 L 156 21 L 156 20 L 153 20 Z"/>
</svg>
